<svg id="icons" enable-background="new 0 0 64 64" height="512" viewBox="0 0 64 64" width="512" xmlns="http://www.w3.org/2000/svg"><path d="m55 7v3h-28.99l-2.4-3z" fill="#f6bb42"/><path d="m55 18.01v7.99.01h-45v-8.01-13h12l1.61 2 2.4 3h28.99z" fill="#ffce54"/><path d="m63 26.01h-8v-.01-7.99z" fill="#aab2bd"/><path d="m10 18v8.01h-.99-.01l-8-8.01z" fill="#aab2bd"/><path d="m9.01 26.01v33.99h-.01l-8-8v-34l8 8.01z" fill="#ccd1d9"/><path d="m10 27.006c-.553 0-1-.447-1-1v-21.006c0-.553.447-1 1-1s1 .447 1 1v21.006c0 .553-.447 1-1 1z" fill="#ffce54"/><path d="m55 8.003h-31.394c-.553 0-1-.448-1-1s.447-1 1-1h31.394c.553 0 1 .448 1 1s-.447 1-1 1z" fill="#f6bb42"/><path d="m55 11.003c-.553 0-1-.448-1-1v-3c0-.552.447-1 1-1s1 .448 1 1v3c0 .552-.447 1-1 1z" fill="#f6bb42"/><path d="m55 11.003h-28.993c-.304 0-.591-.138-.781-.376l-3.702-4.627h-11.524c-.553 0-1-.447-1-1s.447-1 1-1h12.005c.304 0 .591.139.781.375l3.701 4.628h28.513c.553 0 1 .448 1 1s-.447 1-1 1z" fill="#ffce54"/><path d="m55 27.001c-.553 0-1-.448-1-1v-15.998c0-.552.447-1 1-1s1 .448 1 1v15.998c0 .552-.447 1-1 1z" fill="#ffce54"/><path d="m55 26.01h-45-.99v33.99h53.99v-33.99z" fill="#e6e9ed"/><path d="m35.98 31c6.63 0 12 5.37 12 12 0 6.62-5.37 12-12 12-6.631 0-12-5.38-12-12 0-6.63 5.37-12 12-12z" fill="#ed5565"/><g fill="#e6e9ed"><path d="m36 41.997h-1.998c-.553 0-1-.447-1-1s.447-1 1-1h1.998c.553 0 1 .447 1 1s-.447 1-1 1z"/><path d="m36 48.995c-.553 0-1-.447-1-1v-6.998c0-.553.447-1 1-1s1 .447 1 1v6.998c0 .553-.447 1-1 1z"/><path d="m37.998 48.995h-3.996c-.553 0-1-.447-1-1s.447-1 1-1h3.996c.553 0 1 .447 1 1s-.447 1-1 1z"/><path d="m36.03 38.997c-.553 0-1.005-.447-1.005-1s.442-1 .994-1h.011c.552 0 1 .447 1 1s-.448 1-1 1z"/></g></svg>