<svg id="icons" enable-background="new 0 0 64 64" height="512" viewBox="0 0 64 64" width="512" xmlns="http://www.w3.org/2000/svg"><path d="m21.93 13h-2.93v1.88 7.8c-1.89 2.62-3 5.84-3 9.32 0 3.47 1.11 6.689 3 9.319 2.91 4.04 7.65 6.681 13 6.681s10.09-2.641 13-6.681c1.89-2.63 3-5.85 3-9.319 0-3.471-1.11-6.69-3-9.32v-4.68l-5-5zm41.07 13v12h-4.68c-.681 3.01-1.87 5.83-3.471 8.37l3.311 3.31-8.48 8.48-3.31-3.311c-2.54 1.6-5.36 2.79-8.37 3.47v4.681h-12v-4.681c-3.01-.68-5.83-1.87-8.37-3.47l-3.31 3.311-8.48-8.48 3.311-3.31c-1.601-2.54-2.791-5.36-3.471-8.37h-4.68v-12h4.68c.681-3.011 1.87-5.83 3.471-8.37l-3.311-3.311 8.48-8.479 3.31 3.3c2.54-1.59 5.36-2.78 8.37-3.46v-4.68h12v4.68c3.01.68 5.83 1.87 8.37 3.46l3.31-3.3 8.48 8.479-3.31 3.311c1.601 2.54 2.79 5.359 3.471 8.37z" fill="#656d78"/><path d="m38 64h-12c-.553 0-1-.447-1-1v-3.891c-2.536-.652-4.958-1.656-7.218-2.991l-2.753 2.752c-.375.375-1.039.375-1.414 0l-8.485-8.485c-.188-.188-.293-.441-.293-.707s.105-.52.293-.707l2.752-2.753c-1.335-2.26-2.339-4.682-2.991-7.218h-3.891c-.553 0-1-.447-1-1v-12c0-.553.447-1 1-1h3.891c.652-2.536 1.656-4.958 2.991-7.218l-2.752-2.753c-.188-.188-.293-.441-.293-.707s.105-.52.293-.707l8.485-8.485c.375-.375 1.039-.375 1.414 0l2.753 2.752c2.26-1.335 4.682-2.339 7.218-2.991v-3.891c0-.553.447-1 1-1h12c.553 0 1 .447 1 1v3.891c2.536.652 4.958 1.656 7.218 2.991l2.753-2.752c.375-.375 1.039-.375 1.414 0l8.485 8.485c.188.188.293.441.293.707s-.105.52-.293.707l-2.752 2.753c1.335 2.26 2.339 4.682 2.991 7.218h3.891c.553 0 1 .447 1 1v12c0 .553-.447 1-1 1h-3.891c-.652 2.536-1.656 4.958-2.991 7.218l2.752 2.753c.188.188.293.441.293.707s-.105.52-.293.707l-8.485 8.485c-.375.375-1.039.375-1.414 0l-2.753-2.752c-2.26 1.335-4.682 2.339-7.218 2.991v3.891c0 .553-.447 1-1 1zm-11-2h10v-3.678c0-.467.323-.872.778-.976 2.858-.648 5.569-1.771 8.058-3.339.395-.247.909-.192 1.24.14l2.602 2.602 7.071-7.071-2.602-2.602c-.33-.33-.388-.845-.14-1.24 1.567-2.488 2.69-5.199 3.339-8.058.104-.455.509-.778.976-.778h3.678v-10h-3.678c-.467 0-.872-.323-.976-.778-.648-2.858-1.771-5.569-3.339-8.058-.248-.396-.19-.91.14-1.24l2.602-2.602-7.071-7.071-2.602 2.602c-.331.331-.846.387-1.24.14-2.488-1.567-5.199-2.69-8.058-3.339-.455-.104-.778-.509-.778-.976v-3.678h-10v3.678c0 .467-.323.872-.778.976-2.858.648-5.569 1.771-8.058 3.339-.395.247-.908.191-1.24-.14l-2.602-2.602-7.071 7.071 2.602 2.602c.33.33.388.845.14 1.24-1.567 2.488-2.69 5.199-3.339 8.058-.104.455-.509.778-.976.778h-3.678v10h3.678c.467 0 .872.323.976.778.648 2.858 1.771 5.569 3.339 8.058.248.396.19.91-.14 1.24l-2.602 2.602 7.071 7.071 2.602-2.602c.332-.332.846-.387 1.24-.14 2.488 1.567 5.199 2.69 8.058 3.339.455.104.778.509.778.976z" fill="#656d78"/><path d="m32 54.5c-.553 0-1-.447-1-1s.447-1 1-1c11.304 0 20.5-9.196 20.5-20.5 0-.553.447-1 1-1s1 .447 1 1c0 12.406-10.094 22.5-22.5 22.5z" fill="#545c66"/><path d="m32 9.5c.553 0 1 .447 1 1s-.447 1-1 1c-11.304 0-20.5 9.196-20.5 20.5 0 .553-.447 1-1 1s-1-.447-1-1c0-12.406 10.094-22.5 22.5-22.5z" fill="#545c66"/><path d="m45 18h-5v-5z" fill="#f5f7fa"/><path d="m19 13h2.93 18.07v5h5v4.68 18.64c-2.91 4.039-7.65 6.68-13 6.68s-10.09-2.641-13-6.681v-18.639-7.8z" fill="#e6e9ed"/><g fill="#ccd1d9"><path d="m34.001 25.008h-9.999c-.553 0-1-.447-1-1s.447-1 1-1h9.999c.553 0 1 .447 1 1s-.447 1-1 1z"/><path d="m32.003 33.012h-8.001c-.553 0-1-.447-1-1s.447-1 1-1h8.001c.553 0 1 .447 1 1s-.447 1-1 1z"/><path d="m40.001 33.012h-3.998c-.553 0-1-.447-1-1s.447-1 1-1h3.998c.553 0 1 .447 1 1s-.447 1-1 1z"/><path d="m40.001 29.01h-10.998c-.553 0-1-.447-1-1s.447-1 1-1h10.998c.553 0 1 .447 1 1s-.447 1-1 1z"/><path d="m26.003 29.01h-2.001c-.553 0-1-.447-1-1s.447-1 1-1h2.001c.553 0 1 .447 1 1s-.447 1-1 1z"/><path d="m40.001 25.008h-2c-.553 0-1-.447-1-1s.447-1 1-1h2c.553 0 1 .447 1 1s-.447 1-1 1z"/><path d="m35.001 37.014h-10.999c-.553 0-1-.447-1-1s.447-1 1-1h10.999c.553 0 1 .447 1 1s-.447 1-1 1z"/><path d="m40.001 37.014h-1c-.553 0-1-.447-1-1s.447-1 1-1h1c.553 0 1 .447 1 1s-.447 1-1 1z"/><path d="m29.003 41.016h-5.001c-.553 0-1-.447-1-1s.447-1 1-1h5.001c.553 0 1 .447 1 1s-.447 1-1 1z"/><path d="m40.001 41.016h-6.998c-.553 0-1-.447-1-1s.447-1 1-1h6.998c.553 0 1 .447 1 1s-.447 1-1 1z"/></g></svg>