<svg id="icons" enable-background="new 0 0 64 64" height="512" viewBox="0 0 64 64" width="512" xmlns="http://www.w3.org/2000/svg"><path d="m18.98 48.541h.02v14h-17.98v-14z" fill="#e6e9ed"/><path d="m40.98 48.541h.02v14h-17.98v-14z" fill="#e6e9ed"/><path d="m40.98 46.561v1.98h-17.96-.02v-2-.01c0-.549.45-.99 1-.99h.01 15.96c.55 0 1 .451 1.011 1v.02z" fill="#ccd1d9"/><path d="m2.02 45.541h15.95c.55 0 1.011.451 1.021 1h-.01v2h-17.961-.02v-2-.01c0-.549.45-.99 1-.99z" fill="#ccd1d9"/><path d="m62.98 46.561v1.98h-17.96-.02v-2-.01c0-.549.45-.99 1-.99h.01 15.96c.55 0 1 .451 1.011 1v.02z" fill="#ccd1d9"/><path d="m62.98 48.541h.02v14h-17.98v-14z" fill="#e6e9ed"/><path d="m43 1.541 3 4h-26l3-4z" fill="#545c66"/><path d="m20 13.541h26v8h-26z" fill="#545c66"/><path d="m20 5.541h26v8h-26z" fill="#656d78"/><path d="m20 21.541h26v8h-26z" fill="#656d78"/><g fill="#ccd1d9"><path d="m58.997 53.541h-10c-.553 0-1-.447-1-1s.447-1 1-1h10c.553 0 1 .447 1 1s-.447 1-1 1z"/><path d="m58.997 56.541h-10c-.553 0-1-.447-1-1s.447-1 1-1h10c.553 0 1 .447 1 1s-.447 1-1 1z"/><path d="m55.994 59.541h-3.994c-.553 0-1-.447-1-1s.447-1 1-1h3.994c.553 0 1 .447 1 1s-.447 1-1 1z"/><path d="m36.997 53.541h-10c-.553 0-1-.447-1-1s.447-1 1-1h10c.553 0 1 .447 1 1s-.447 1-1 1z"/><path d="m36.997 56.541h-10c-.553 0-1-.447-1-1s.447-1 1-1h10c.553 0 1 .447 1 1s-.447 1-1 1z"/><path d="m33.994 59.541h-3.994c-.553 0-1-.447-1-1s.447-1 1-1h3.994c.553 0 1 .447 1 1s-.447 1-1 1z"/><path d="m14.999 53.541h-10c-.553 0-1-.447-1-1s.447-1 1-1h10c.553 0 1 .447 1 1s-.447 1-1 1z"/><path d="m14.999 56.541h-10c-.553 0-1-.447-1-1s.447-1 1-1h10c.553 0 1 .447 1 1s-.447 1-1 1z"/><path d="m11.996 59.541h-3.994c-.553 0-1-.447-1-1s.447-1 1-1h3.994c.553 0 1 .447 1 1s-.447 1-1 1z"/><path d="m32 43.541c-.553 0-1-.447-1-1v-10.002c0-.553.447-1 1-1s1 .447 1 1v10.002c0 .553-.447 1-1 1z"/><path d="m37 38.541c-.553 0-1-.447-1-1v-5.002c0-.553.447-1 1-1s1 .447 1 1v5.002c0 .553-.447 1-1 1z"/><path d="m53.999 38.541h-16.999c-.553 0-1-.447-1-1s.447-1 1-1h16.999c.553 0 1 .447 1 1s-.447 1-1 1z"/><path d="m53.999 43.541c-.553 0-1-.447-1-1v-5c0-.553.447-1 1-1s1 .447 1 1v5c0 .553-.447 1-1 1z"/><path d="m27 38.541c-.553 0-1-.447-1-1v-5.002c0-.553.447-1 1-1s1 .447 1 1v5.002c0 .553-.447 1-1 1z"/><path d="m27 38.541h-16.999c-.553 0-1-.447-1-1s.447-1 1-1h16.999c.553 0 1 .447 1 1s-.447 1-1 1z"/><path d="m10.001 43.541c-.553 0-1-.447-1-1v-5c0-.553.447-1 1-1s1 .447 1 1v5c0 .553-.447 1-1 1z"/></g><path d="m19 5.459h26v24h-26z" fill="#656d78"/><path d="m19 13.459h26v8h-26z" fill="#545c66"/><path d="m42 1.459 3 4h-26l3-4z" fill="#545c66"/><path d="m41.03 10.957c-.827 0-1.504-.67-1.504-1.496 0-.828.662-1.496 1.488-1.496h.016c.826 0 1.496.668 1.496 1.496 0 .826-.67 1.496-1.496 1.496z" fill="#5d9cec"/><path d="m21.999 11.461c-.256 0-.512-.098-.707-.293-.391-.391-.391-1.023 0-1.414l2-2c.391-.391 1.023-.391 1.414 0s.391 1.023 0 1.414l-2 2c-.195.195-.451.293-.707.293z" fill="#545c66"/><path d="m26.999 11.461c-.256 0-.512-.098-.707-.293-.391-.391-.391-1.023 0-1.414l2-2c.391-.391 1.023-.391 1.414 0s.391 1.023 0 1.414l-2 2c-.195.195-.451.293-.707.293z" fill="#545c66"/><path d="m31.999 11.461c-.256 0-.512-.098-.707-.293-.391-.391-.391-1.023 0-1.414l2-2c.391-.391 1.023-.391 1.414 0s.391 1.023 0 1.414l-2 2c-.195.195-.451.293-.707.293z" fill="#545c66"/><path d="m41.03 18.957c-.827 0-1.504-.67-1.504-1.496 0-.828.662-1.496 1.488-1.496h.016c.826 0 1.496.668 1.496 1.496 0 .826-.67 1.496-1.496 1.496z" fill="#5d9cec"/><path d="m21.999 19.461c-.256 0-.512-.098-.707-.293-.391-.391-.391-1.023 0-1.414l2-2c.391-.391 1.023-.391 1.414 0s.391 1.023 0 1.414l-2 2c-.195.195-.451.293-.707.293z" fill="#434a54"/><path d="m26.999 19.461c-.256 0-.512-.098-.707-.293-.391-.391-.391-1.023 0-1.414l2-2c.391-.391 1.023-.391 1.414 0s.391 1.023 0 1.414l-2 2c-.195.195-.451.293-.707.293z" fill="#434a54"/><path d="m31.999 19.461c-.256 0-.512-.098-.707-.293-.391-.391-.391-1.023 0-1.414l2-2c.391-.391 1.023-.391 1.414 0s.391 1.023 0 1.414l-2 2c-.195.195-.451.293-.707.293z" fill="#434a54"/><path d="m41.03 26.957c-.827 0-1.504-.67-1.504-1.496 0-.828.662-1.496 1.488-1.496h.016c.826 0 1.496.668 1.496 1.496 0 .826-.67 1.496-1.496 1.496z" fill="#5d9cec"/><path d="m21.999 27.461c-.256 0-.512-.098-.707-.293-.391-.391-.391-1.023 0-1.414l2-2c.391-.391 1.023-.391 1.414 0s.391 1.023 0 1.414l-2 2c-.195.195-.451.293-.707.293z" fill="#545c66"/><path d="m26.999 27.461c-.256 0-.512-.098-.707-.293-.391-.391-.391-1.023 0-1.414l2-2c.391-.391 1.023-.391 1.414 0s.391 1.023 0 1.414l-2 2c-.195.195-.451.293-.707.293z" fill="#545c66"/><path d="m31.999 27.461c-.256 0-.512-.098-.707-.293-.391-.391-.391-1.023 0-1.414l2-2c.391-.391 1.023-.391 1.414 0s.391 1.023 0 1.414l-2 2c-.195.195-.451.293-.707.293z" fill="#545c66"/></svg>